<svg xmlns="http://www.w3.org/2000/svg" width="400" height="400" viewBox="0 0 220 220">
  <line x1="40" y1="60" x2="110" y2="40" stroke="#e6edf3" stroke-width="1" opacity="0.55"></line>
  <line x1="40" y1="60" x2="110" y2="90" stroke="#e6edf3" stroke-width="1" opacity="0.55"></line>
  <line x1="40" y1="60" x2="110" y2="140" stroke="#e6edf3" stroke-width="1" opacity="0.55"></line>
  <line x1="40" y1="60" x2="110" y2="180" stroke="#e6edf3" stroke-width="1" opacity="0.55"></line>
  <line x1="40" y1="110" x2="110" y2="40" stroke="#e6edf3" stroke-width="1" opacity="0.55"></line>
  <line x1="40" y1="110" x2="110" y2="90" stroke="#e6edf3" stroke-width="1" opacity="0.55"></line>
  <line x1="40" y1="110" x2="110" y2="140" stroke="#2f6feb" stroke-width="2.5" opacity="1"></line>
  <line x1="40" y1="110" x2="110" y2="180" stroke="#e6edf3" stroke-width="1" opacity="0.55"></line>
  <line x1="40" y1="160" x2="110" y2="40" stroke="#e6edf3" stroke-width="1" opacity="0.55"></line>
  <line x1="40" y1="160" x2="110" y2="90" stroke="#e6edf3" stroke-width="1" opacity="0.55"></line>
  <line x1="40" y1="160" x2="110" y2="140" stroke="#e6edf3" stroke-width="1" opacity="0.55"></line>
  <line x1="40" y1="160" x2="110" y2="180" stroke="#e6edf3" stroke-width="1" opacity="0.55"></line>
  <line x1="110" y1="40" x2="180" y2="80" stroke="#e6edf3" stroke-width="1" opacity="0.55"></line>
  <line x1="110" y1="40" x2="180" y2="140" stroke="#e6edf3" stroke-width="1" opacity="0.55"></line>
  <line x1="110" y1="90" x2="180" y2="80" stroke="#e6edf3" stroke-width="1" opacity="0.55"></line>
  <line x1="110" y1="90" x2="180" y2="140" stroke="#e6edf3" stroke-width="1" opacity="0.55"></line>
  <line x1="110" y1="140" x2="180" y2="80" stroke="#2f6feb" stroke-width="2.5" opacity="1"></line>
  <line x1="110" y1="140" x2="180" y2="140" stroke="#e6edf3" stroke-width="1" opacity="0.55"></line>
  <line x1="110" y1="180" x2="180" y2="80" stroke="#e6edf3" stroke-width="1" opacity="0.55"></line>
  <line x1="110" y1="180" x2="180" y2="140" stroke="#e6edf3" stroke-width="1" opacity="0.55"></line>
  <circle cx="40" cy="60" r="8" fill="#0d1117" stroke="#e6edf3" stroke-width="2.5"></circle>
  <circle cx="40" cy="110" r="8" fill="#0d1117" stroke="#e6edf3" stroke-width="2.5"></circle>
  <circle cx="40" cy="160" r="8" fill="#0d1117" stroke="#e6edf3" stroke-width="2.5"></circle>
  <circle cx="110" cy="40" r="9" fill="#0d1117" stroke="#e6edf3" stroke-width="2.5"></circle>
  <circle cx="110" cy="90" r="9" fill="#0d1117" stroke="#e6edf3" stroke-width="2.5"></circle>
  <circle cx="110" cy="140" r="9" fill="#2f6feb" stroke="#e6edf3" stroke-width="2.5"></circle>
  <circle cx="110" cy="180" r="9" fill="#0d1117" stroke="#e6edf3" stroke-width="2.5"></circle>
  <circle cx="180" cy="80" r="8" fill="#2f6feb" stroke="#e6edf3" stroke-width="2.5"></circle>
  <circle cx="180" cy="140" r="8" fill="#0d1117" stroke="#e6edf3" stroke-width="2.5"></circle>
</svg>